<svg data-v-423bf9ae="" xmlns="http://www.w3.org/2000/svg" viewBox="0 0 381.37193702060625 163" class="iconAbove"><!----><!----><defs data-v-423bf9ae=""><linearGradient data-v-423bf9ae="" gradientTransform="rotate(25)" id="21fc5b3a-9548-4c58-b0cc-978613c0bc4e" x1="0%" y1="0%" x2="100%" y2="0%"><stop data-v-423bf9ae="" offset="0%" style="stop-color: rgb(66, 91, 139); stop-opacity: 1;"></stop><stop data-v-423bf9ae="" offset="100%" style="stop-color: rgb(153, 152, 153); stop-opacity: 1;"></stop></linearGradient></defs><g data-v-423bf9ae="" id="2afc096b-1c32-46ed-bcb3-7b2035072ba3" fill="url(#21fc5b3a-9548-4c58-b0cc-978613c0bc4e)" transform="matrix(4.958677768707275,0,0,4.958677768707275,-1.537200689315796,83.36363220214844)"><path d="M3.46 13.26L3.46 13.72L0.31 13.72L0.31 13.26L1.44 12.98L1.68 5.89L0.56 5.63L0.56 5.17L3.15 5.17L5.59 12.01L7.90 5.17L10.57 5.17L10.57 5.63L9.31 5.91L9.58 12.98L10.86 13.26L10.86 13.72L7.20 13.72L7.20 13.26L8.44 12.98L8.22 6.61L5.74 13.72L5.04 13.86L2.42 6.57L2.21 12.98L3.46 13.26ZM14.35 7.48L14.35 7.48Q13.64 7.48 12.96 7.67L12.96 7.67L12.63 8.88L12.21 8.88L11.97 7.24L11.97 7.24Q13.36 6.72 14.60 6.72L14.60 6.72L14.60 6.72Q15.64 6.72 16.18 7.07L16.18 7.07L16.18 7.07Q16.73 7.42 16.73 8.25L16.73 8.25L16.73 12.91L17.99 13.16L17.99 13.55L17.99 13.55Q17.26 13.78 16.52 13.78L16.52 13.78L16.52 13.78Q16.17 13.78 15.92 13.58L15.92 13.58L15.92 13.58Q15.67 13.38 15.60 13.01L15.60 13.01L15.60 13.01Q14.41 13.87 13.17 13.87L13.17 13.87L13.17 13.87Q12.47 13.87 12.07 13.36L12.07 13.36L12.07 13.36Q11.68 12.84 11.68 12.15L11.68 12.15L11.68 12.15Q11.68 10.53 13.45 10.21L13.45 10.21L15.57 9.83L15.57 8.65L15.57 8.65Q15.57 8.06 15.30 7.77L15.30 7.77L15.30 7.77Q15.04 7.48 14.35 7.48L14.35 7.48ZM14.11 10.68L14.11 10.68Q13.45 10.79 13.17 11.13L13.17 11.13L13.17 11.13Q12.89 11.47 12.89 11.94L12.89 11.94L12.89 11.94Q12.89 13.01 13.92 13.01L13.92 13.01L13.92 13.01Q14.28 13.01 14.72 12.85L14.72 12.85L14.72 12.85Q15.16 12.70 15.57 12.49L15.57 12.49L15.57 10.44L14.11 10.68ZM18.48 16.06L18.48 15.67L19.73 15.30L19.73 7.70L18.48 7.56L18.48 7.24L18.48 7.24Q19.31 7.03 20.33 6.87L20.33 6.87L20.33 6.87Q21.35 6.72 22.11 6.72L22.11 6.72L22.11 6.72Q24.08 6.72 24.91 7.69L24.91 7.69L24.91 7.69Q25.73 8.65 25.73 10.32L25.73 10.32L25.73 10.32Q25.73 11.86 24.95 12.79L24.95 12.79L24.95 12.79Q24.16 13.72 22.72 13.72L22.72 13.72L22.72 13.72Q22.09 13.72 21.57 13.57L21.57 13.57L21.74 13.05L21.74 13.05Q21.99 13.08 22.22 13.08L22.22 13.08L22.22 13.08Q23.53 13.08 23.99 12.31L23.99 12.31L23.99 12.31Q24.44 11.54 24.44 10.26L24.44 10.26L24.44 10.26Q24.44 9.45 24.30 8.84L24.30 8.84L24.30 8.84Q24.15 8.23 23.66 7.82L23.66 7.82L23.66 7.82Q23.17 7.41 22.22 7.41L22.22 7.41L22.22 7.41Q21.63 7.41 20.89 7.64L20.89 7.64L20.89 15.29L22.30 15.65L22.30 16.06L18.48 16.06ZM28.56 5.60L28.56 5.60Q28.22 5.60 27.97 5.37L27.97 5.37L27.97 5.37Q27.72 5.14 27.72 4.80L27.72 4.80L27.72 4.80Q27.72 4.45 27.97 4.21L27.97 4.21L27.97 4.21Q28.22 3.96 28.56 3.96L28.56 3.96L28.56 3.96Q28.90 3.96 29.15 4.21L29.15 4.21L29.15 4.21Q29.40 4.47 29.40 4.80L29.40 4.80L29.40 4.80Q29.40 5.14 29.15 5.37L29.15 5.37L29.15 5.37Q28.90 5.60 28.56 5.60L28.56 5.60ZM30.39 13.72L26.74 13.72L26.74 13.27L27.99 12.98L27.99 7.70L26.74 7.56L26.74 7.24L28.80 6.72L29.15 6.72L29.15 12.98L30.39 13.27L30.39 13.72ZM36.95 5.78L36.95 5.78Q36.30 5.63 35.52 5.63L35.52 5.63L35.52 5.63Q33.84 5.63 33.17 6.75L33.17 6.75L33.17 6.75Q32.51 7.87 32.51 9.39L32.51 9.39L32.51 9.39Q32.51 10.91 33.17 12.05L33.17 12.05L33.17 12.05Q33.84 13.20 35.48 13.20L35.48 13.20L35.48 13.20Q36.25 13.20 36.78 12.94L36.78 12.94L36.78 10.44L35.53 10.16L35.53 9.69L38.93 9.69L38.93 10.16L37.94 10.44L37.94 13.29L37.94 13.29Q36.96 13.87 35.42 13.87L35.42 13.87L35.42 13.87Q33.24 13.87 32.24 12.64L32.24 12.64L32.24 12.64Q31.25 11.40 31.25 9.39L31.25 9.39L31.25 9.39Q31.25 7.39 32.27 6.17L32.27 6.17L32.27 6.17Q33.29 4.94 35.52 4.94L35.52 4.94L35.52 4.94Q36.15 4.94 36.86 5.05L36.86 5.05L36.86 5.05Q37.58 5.15 38.01 5.36L38.01 5.36L37.81 7.14L37.28 7.14L36.95 5.78ZM43.40 7.62L43.40 7.62Q42.64 7.62 41.87 7.88L41.87 7.88L41.87 12.98L43.46 13.30L43.46 13.72L39.47 13.72L39.47 13.33L40.71 12.96L40.71 7.73L39.47 7.56L39.47 7.24L41.34 6.72L41.83 6.72L41.83 7.36L41.83 7.36Q42.32 7.06 42.90 6.87L42.90 6.87L42.90 6.87Q43.48 6.69 44.00 6.69L44.00 6.69L44.00 6.69Q44.24 6.69 44.37 6.71L44.37 6.71L44.16 8.72L43.69 8.72L43.40 7.62ZM47.89 7.48L47.89 7.48Q47.18 7.48 46.51 7.67L46.51 7.67L46.17 8.88L45.75 8.88L45.51 7.24L45.51 7.24Q46.90 6.72 48.15 6.72L48.15 6.72L48.15 6.72Q49.18 6.72 49.73 7.07L49.73 7.07L49.73 7.07Q50.27 7.42 50.27 8.25L50.27 8.25L50.27 12.91L51.53 13.16L51.53 13.55L51.53 13.55Q50.81 13.78 50.06 13.78L50.06 13.78L50.06 13.78Q49.71 13.78 49.46 13.58L49.46 13.58L49.46 13.58Q49.21 13.38 49.14 13.01L49.14 13.01L49.14 13.01Q47.95 13.87 46.72 13.87L46.72 13.87L46.72 13.87Q46.02 13.87 45.62 13.36L45.62 13.36L45.62 13.36Q45.22 12.84 45.22 12.15L45.22 12.15L45.22 12.15Q45.22 10.53 47.00 10.21L47.00 10.21L49.11 9.83L49.11 8.65L49.11 8.65Q49.11 8.06 48.85 7.77L48.85 7.77L48.85 7.77Q48.58 7.48 47.89 7.48L47.89 7.48ZM47.66 10.68L47.66 10.68Q47.00 10.79 46.72 11.13L46.72 11.13L46.72 11.13Q46.44 11.47 46.44 11.94L46.44 11.94L46.44 11.94Q46.44 13.01 47.46 13.01L47.46 13.01L47.46 13.01Q47.82 13.01 48.26 12.85L48.26 12.85L48.26 12.85Q48.71 12.70 49.11 12.49L49.11 12.49L49.11 10.44L47.66 10.68ZM56.39 13.57L56.39 13.57Q56.00 13.68 55.27 13.76L55.27 13.76L55.27 13.76Q54.54 13.85 54.22 13.85L54.22 13.85L54.22 13.85Q53.63 13.85 53.38 13.52L53.38 13.52L53.38 13.52Q53.13 13.19 53.13 12.70L53.13 12.70L53.13 7.56L52.11 7.56L52.11 7.06L53.24 6.71L53.76 5.31L54.28 5.31L54.28 6.85L56.59 6.85L56.59 7.67L54.28 7.56L54.28 12.91L56.39 13.19L56.39 13.57ZM58.98 5.60L58.98 5.60Q58.65 5.60 58.39 5.37L58.39 5.37L58.39 5.37Q58.14 5.14 58.14 4.80L58.14 4.80L58.14 4.80Q58.14 4.45 58.39 4.21L58.39 4.21L58.39 4.21Q58.65 3.96 58.98 3.96L58.98 3.96L58.98 3.96Q59.32 3.96 59.57 4.21L59.57 4.21L59.57 4.21Q59.82 4.47 59.82 4.80L59.82 4.80L59.82 4.80Q59.82 5.14 59.57 5.37L59.57 5.37L59.57 5.37Q59.32 5.60 58.98 5.60L58.98 5.60ZM60.82 13.72L57.16 13.72L57.16 13.27L58.41 12.98L58.41 7.70L57.16 7.56L57.16 7.24L59.22 6.72L59.57 6.72L59.57 12.98L60.82 13.27L60.82 13.72ZM64.93 6.72L64.93 6.72Q66.61 6.72 67.40 7.71L67.40 7.71L67.40 7.71Q68.18 8.69 68.18 10.32L68.18 10.32L68.18 10.32Q68.18 11.90 67.38 12.88L67.38 12.88L67.38 12.88Q66.58 13.86 64.93 13.86L64.93 13.86L64.93 13.86Q63.28 13.86 62.47 12.87L62.47 12.87L62.47 12.87Q61.67 11.89 61.67 10.32L61.67 10.32L61.67 10.32Q61.67 8.71 62.47 7.71L62.47 7.71L62.47 7.71Q63.27 6.72 64.93 6.72L64.93 6.72ZM66.89 10.28L66.89 10.28Q66.89 8.90 66.45 8.14L66.45 8.14L66.45 8.14Q66.01 7.38 64.89 7.38L64.89 7.38L64.89 7.38Q63.83 7.38 63.39 8.15L63.39 8.15L63.39 8.15Q62.96 8.92 62.96 10.28L62.96 10.28L62.96 10.28Q62.96 11.66 63.41 12.43L63.41 12.43L63.41 12.43Q63.85 13.19 64.97 13.19L64.97 13.19L64.97 13.19Q66.07 13.19 66.48 12.43L66.48 12.43L66.48 12.43Q66.89 11.68 66.89 10.28L66.89 10.28ZM71.60 7.28L71.60 7.28Q72.09 7.07 72.78 6.90L72.78 6.90L72.78 6.90Q73.47 6.72 74.10 6.72L74.10 6.72L74.10 6.72Q74.93 6.72 75.45 7.08L75.45 7.08L75.45 7.08Q75.96 7.45 75.96 8.25L75.96 8.25L75.96 12.98L77.22 13.33L77.22 13.72L73.65 13.72L73.65 13.33L74.80 12.98L74.80 8.48L74.80 8.48Q74.80 8.11 74.68 7.91L74.68 7.91L74.68 7.91Q74.56 7.71 74.27 7.64L74.27 7.64L74.27 7.64Q73.98 7.56 73.40 7.56L73.40 7.56L73.40 7.56Q72.95 7.56 72.46 7.62L72.46 7.62L72.46 7.62Q71.97 7.69 71.60 7.78L71.60 7.78L71.60 12.98L72.74 13.33L72.74 13.72L69.19 13.72L69.19 13.33L70.43 12.98L70.43 7.70L69.19 7.56L69.19 7.24L71.22 6.72L71.60 6.72L71.60 7.28Z"></path></g><defs data-v-423bf9ae=""><linearGradient data-v-423bf9ae="" gradientTransform="rotate(25)" id="69e3be2c-4a94-4872-a172-505365ca3826" x1="0%" y1="0%" x2="100%" y2="0%"><stop data-v-423bf9ae="" offset="0%" style="stop-color: rgb(153, 152, 153); stop-opacity: 1;"></stop><stop data-v-423bf9ae="" offset="100%" style="stop-color: rgb(66, 91, 139); stop-opacity: 1;"></stop></linearGradient></defs><g data-v-423bf9ae="" id="3e13b44e-9832-45b9-84ec-575fa293f234" transform="matrix(1.0688835382461548,0,0,1.0688835382461548,137.70237731933594,-7.5441789627075195)" stroke="none" fill="url(#69e3be2c-4a94-4872-a172-505365ca3826)"><path d="M35.9 11.9c-1.3-2.4-3.7-4-6.6-4-4.1 0-7.5 3.3-7.5 7.5 0 4.1 3.3 7.5 7.5 7.5.6 0 1.2-.1 1.7-.2l12 19.5c1.4-1.3 3.2-2.2 5.1-2.6L35.6 19.4c.3-.6.6-1.2.8-1.8h23.9c-.1-.7-.2-1.4-.2-2.2 0-1.2.2-2.4.6-3.5H35.9zm-6.6 6.3c-1.5 0-2.8-1.2-2.8-2.8 0-1.5 1.2-2.8 2.8-2.8 1.5 0 2.8 1.2 2.8 2.8-.1 1.6-1.3 2.8-2.8 2.8zM70.6 8c-4.1 0-7.5 3.3-7.5 7.5 0 4.1 3.3 7.5 7.5 7.5.6 0 1.2-.1 1.7-.2l12 19.5c1.4-1.3 3.2-2.2 5.1-2.6L76.9 19.4c.7-1.1 1.1-2.5 1.1-3.9 0-4.2-3.3-7.5-7.4-7.5zm0 10.2c-1.5 0-2.8-1.2-2.8-2.8 0-1.5 1.2-2.8 2.8-2.8 1.5 0 2.8 1.2 2.8 2.8-.1 1.6-1.3 2.8-2.8 2.8zM29.3 92c3 0 5.5-1.7 6.7-4.2h24.7c-.4-1.1-.6-2.3-.6-3.5 0-.7.1-1.5.2-2.2H36.4c-.2-.6-.4-1.1-.7-1.6l12.4-20.2c-1.9-.4-3.7-1.3-5.1-2.6L31.1 77c-.6-.2-1.2-.2-1.9-.2-4.1 0-7.5 3.3-7.5 7.5v.2c.1 4.2 3.4 7.5 7.6 7.5zm0-10.2c1.5 0 2.7 1.2 2.8 2.6-.1 1.5-1.3 2.6-2.8 2.6-1.5 0-2.7-1.2-2.8-2.6.1-1.4 1.3-2.6 2.8-2.6zm55-24l-12 19.5c-.6-.1-1.1-.2-1.7-.2-4.1 0-7.5 3.3-7.5 7.5 0 4.1 3.3 7.5 7.5 7.5 4.1 0 7.5-3.3 7.5-7.5 0-1.4-.4-2.8-1.1-3.9l12.4-20.3c-2-.5-3.7-1.4-5.1-2.6zM70.6 87.3c-1.5 0-2.8-1.2-2.8-2.8 0-1.5 1.2-2.8 2.8-2.8 1.5 0 2.8 1.2 2.8 2.8-.1 1.6-1.3 2.8-2.8 2.8zm20.7-44.8c-2.9 0-5.3 1.6-6.6 4H59.9c.4 1.1.6 2.3.6 3.5 0 .7-.1 1.5-.2 2.2h23.9c.9 3.1 3.8 5.3 7.2 5.3 4.1 0 7.5-3.3 7.5-7.5-.1-4.1-3.5-7.5-7.6-7.5zm0 10.3c-1.5 0-2.8-1.2-2.8-2.8 0-1.5 1.2-2.8 2.8-2.8 1.5 0 2.8 1.2 2.8 2.8 0 1.5-1.3 2.8-2.8 2.8zM50.1 42.5c-.1 0-.1 0 0 0-3.4 0-6.3 2.2-7.2 5.3H19c.1.7.2 1.4.2 2.2 0 1.2-.2 2.4-.6 3.5h24.8c1.3 2.4 3.7 4 6.6 4h.1l12.5 20.4c1.2-1.5 2.8-2.6 4.7-3.2l-12-19.5c1.3-1.3 2.1-3.2 2.1-5.2s-.8-3.9-2.1-5.2l11.9-19.4c-1.9-.6-3.5-1.7-4.7-3.2L50.1 42.5zM50 52.8c-1.5 0-2.8-1.2-2.8-2.8s1.2-2.8 2.8-2.8c1.5 0 2.8 1.2 2.8 2.8s-1.3 2.8-2.8 2.8zM8.7 57.5l12.5 20.4c1.2-1.5 2.8-2.6 4.7-3.2L14 55.2c1.3-1.3 2.1-3.2 2.1-5.2s-.8-3.9-2.1-5.2l11.9-19.4c-1.9-.6-3.5-1.7-4.7-3.2L8.8 42.5h-.1c-4.1 0-7.5 3.3-7.5 7.5 0 4.1 3.4 7.5 7.5 7.5zm0-10.3c1.5 0 2.8 1.2 2.8 2.8s-1.2 2.8-2.8 2.8-2.8-1.3-2.8-2.8 1.3-2.8 2.8-2.8z"></path></g><!----></svg>